HIERARCHY
ROOT Hips
{
	OFFSET 0.00000 0.00000 0.00000
	CHANNELS 6 Xposition Yposition Zposition Zrotation Yrotation Xrotation 
	JOINT LHipJoint
	{
		OFFSET 0 0 0
		CHANNELS 3 Zrotation Yrotation Xrotation
		JOINT LeftUpLeg
		{
			OFFSET 3.13874 -1.57224 1.49786
			CHANNELS 3 Zrotation Yrotation Xrotation
			JOINT LeftLeg
			{
				OFFSET 2.10955 -5.79594 0.00000
				CHANNELS 3 Zrotation Yrotation Xrotation
				JOINT LeftFoot
				{
					OFFSET 2.41843 -6.64458 0.00000
					CHANNELS 3 Zrotation Yrotation Xrotation
					JOINT LeftToeBase
					{
						OFFSET 0.04713 -0.12948 1.66229
						CHANNELS 3 Zrotation Yrotation Xrotation
						End Site
						{
							OFFSET 0.00000 -0.00000 0.85167
						}
					}
				}
			}
		}
	}
	JOINT RHipJoint
	{
		OFFSET 0 0 0
		CHANNELS 3 Zrotation Yrotation Xrotation
		JOINT RightUpLeg
		{
			OFFSET -3.13988 -1.57224 1.49786
			CHANNELS 3 Zrotation Yrotation Xrotation
			JOINT RightLeg
			{
				OFFSET -2.15006 -5.90725 0.00000
				CHANNELS 3 Zrotation Yrotation Xrotation
				JOINT RightFoot
				{
					OFFSET -2.34496 -6.44273 0.00000
					CHANNELS 3 Zrotation Yrotation Xrotation
					JOINT RightToeBase
					{
						OFFSET -0.08699 -0.23900 1.55223
						CHANNELS 3 Zrotation Yrotation Xrotation
						End Site
						{
							OFFSET -0.00000 -0.00000 0.80281
						}
					}
				}
			}
		}
	}
	JOINT LowerBack
	{
		OFFSET 0 0 0
		CHANNELS 3 Zrotation Yrotation Xrotation
		JOINT Spine
		{
			OFFSET 0.01292 1.96517 -0.16495
			CHANNELS 3 Zrotation Yrotation Xrotation
			JOINT Spine1
			{
				OFFSET 0.02122 1.88666 0.19706
				CHANNELS 3 Zrotation Yrotation Xrotation
				JOINT Neck
				{
					OFFSET 0 0 0
					CHANNELS 3 Zrotation Yrotation Xrotation
					JOINT Neck1
					{
						OFFSET -0.01683 1.81591 0.07903
						CHANNELS 3 Zrotation Yrotation Xrotation
						JOINT Head
						{
							OFFSET 0.00815 1.74013 -0.47700
							CHANNELS 3 Zrotation Yrotation Xrotation
							End Site
							{
								OFFSET -0.00204 1.83225 -0.16933
							}
						}
					}
				}
				JOINT LeftShoulder
				{
					OFFSET 0 0 0
					CHANNELS 3 Zrotation Yrotation Xrotation
					JOINT LeftArm
					{
						OFFSET 3.38482 1.41533 0.19802
						CHANNELS 3 Zrotation Yrotation Xrotation
						JOINT LeftForeArm
						{
							OFFSET 4.32712 -0.00000 0.00000
							CHANNELS 3 Zrotation Yrotation Xrotation
							JOINT LeftHand
							{
								OFFSET 3.28587 -0.00000 -0.00000
								CHANNELS 3 Zrotation Yrotation Xrotation
								JOINT LeftFingerBase
								{
									OFFSET 0 0 0
									CHANNELS 3 Zrotation Yrotation Xrotation
									JOINT LeftHandIndex1
									{
										OFFSET 0.43316 -0.00000 -0.00000
										CHANNELS 3 Zrotation Yrotation Xrotation
										End Site
										{
											OFFSET 0.34922 -0.00000 -0.00000
										}
									}
								}
								JOINT LThumb
								{
									OFFSET 0 0 0
									CHANNELS 3 Zrotation Yrotation Xrotation
									End Site
									{
										OFFSET 0.35456 -0.00000 0.35456
									}
								}
							}
						}
					}
				}
				JOINT RightShoulder
				{
					OFFSET 0 0 0
					CHANNELS 3 Zrotation Yrotation Xrotation
					JOINT RightArm
					{
						OFFSET -3.09725 1.62858 -0.14144
						CHANNELS 3 Zrotation Yrotation Xrotation
						JOINT RightForeArm
						{
							OFFSET -4.29104 -0.00000 0.00000
							CHANNELS 3 Zrotation Yrotation Xrotation
							JOINT RightHand
							{
								OFFSET -3.22720 -0.00000 -0.00000
								CHANNELS 3 Zrotation Yrotation Xrotation
								JOINT RightFingerBase
								{
									OFFSET 0 0 0
									CHANNELS 3 Zrotation Yrotation Xrotation
									JOINT RightHandIndex1
									{
										OFFSET -0.54362 -0.00000 -0.00000
										CHANNELS 3 Zrotation Yrotation Xrotation
										End Site
										{
											OFFSET -0.43828 -0.00000 -0.00000
										}
									}
								}
								JOINT RThumb
								{
									OFFSET 0 0 0
									CHANNELS 3 Zrotation Yrotation Xrotation
									End Site
									{
										OFFSET -0.44497 -0.00000 0.44497
									}
								}
							}
						}
					}
				}
			}
		}
	}
}
MOTION
Frames: 9
Frame Time: 0.0166666
6.4028 15.9221 5.1274 -178.6250 -44.6811 -171.6190 0.0000 0.0000 0.0000 -30.1059 -37.9940 12.9200 0.0589 -1.5663 -4.3085 -1.1103 22.2262 -21.9944 12.0281 -18.4025 -66.0777 0.0000 0.0000 0.0000 22.3486 11.5243 8.3314 -0.0040 -0.4068 1.1179 -6.4045 -11.2913 -52.1041 -0.7352 -5.4778 15.2765 -4.7999 0.8737 4.0979 -0.1484 0.0429 -10.4650 2.5720 0.2760 -13.7802 -3.3262 -5.3798 -14.7831 6.7718 -12.6433 36.1485 0.9235 -5.8152 16.0607 -0.0000 -0.0000 0.0000 -86.2024 19.2493 4.8091 19.4159 -29.9321 -5.2367 -0.0000 -0.0000 12.5003 28.0816 30.2664 15.0516 -7.1250 0.0000 -0.0000 -3.9333 63.4202 -1.7590 -0.0000 -0.0000 0.0000 13.3212 12.8748 -1.1665 -111.3559 58.2046 -78.3832 0.0000 0.0000 34.3348 -63.1391 7.5096 -14.4692 7.1250 -0.0000 -0.0000 -24.2623 -14.5433 -19.2334
6.4961 15.9256 5.0739 -178.5780 -45.2232 -171.7940 0.0000 0.0000 0.0000 -29.7724 -38.3619 12.9690 0.0530 -1.4857 -4.0864 -1.3329 22.9346 -20.9810 12.3543 -18.5364 -67.1074 0.0000 0.0000 0.0000 22.4829 10.7665 8.0036 -0.0068 -0.5341 1.4677 -5.9247 -11.6066 -50.5176 -0.6479 -5.1491 14.3344 -5.0753 0.8851 4.3037 -0.2034 0.0066 -10.5158 2.6714 0.2901 -13.9773 -3.1121 -5.4744 -14.7019 6.8715 -12.9475 36.2244 0.8713 -5.9112 16.1001 0.0000 -0.0000 0.0000 -85.8839 19.3683 5.1407 19.4076 -29.9220 -5.2326 -0.0000 -0.0000 12.0852 29.2338 28.9471 15.1563 -7.1250 0.0000 -0.0000 -1.8608 62.3381 -0.7844 0.0000 -0.0000 0.0000 16.3648 14.4948 -10.8531 -106.3153 58.9699 -74.0806 0.0000 0.0000 27.3175 -59.7833 2.8851 -4.9393 7.1250 -0.0000 -0.0000 -24.1221 -24.1555 -13.3123
6.5959 15.9291 5.0271 -177.9070 -45.7131 -172.4300 0.0000 0.0000 0.0000 -28.8139 -38.6752 12.9094 0.0487 -1.4240 -3.9162 -1.3322 22.9038 -20.9110 12.3893 -18.5504 -67.2175 0.0000 0.0000 0.0000 23.3126 10.8550 8.0443 -0.0097 -0.6361 1.7481 -5.5088 -12.7396 -49.5136 -0.3863 -3.9912 11.0520 -4.7492 0.8541 4.4993 -0.1360 0.0007 -10.5553 2.5650 0.2632 -14.1397 -3.0468 -5.4580 -14.7336 6.8695 -13.0261 36.4880 0.8382 -5.9388 16.2452 -0.0000 -0.0000 0.0000 -85.7693 19.7951 5.0572 19.7629 -30.3556 -5.4110 -0.0000 -0.0000 12.3829 28.9621 29.6928 15.3309 -7.1250 0.0000 -0.0000 -2.5470 63.0557 -1.1168 -0.0000 -0.0000 0.0000 19.5144 17.6736 -19.6102 -101.4767 59.4964 -69.9223 0.0000 0.0000 15.1770 -59.6985 -6.9412 11.6839 7.1250 -0.0000 -0.0000 -29.2603 -41.4832 -2.8114
6.6931 15.9299 4.9786 -177.5910 -45.9640 -172.7960 0.0000 0.0000 0.0000 -28.4726 -39.5199 13.5245 0.0488 -1.4257 -3.9209 -1.1201 22.5510 -22.6033 12.1023 -18.4335 -66.3126 0.0000 0.0000 0.0000 23.8200 10.8906 8.1702 -0.0113 -0.6865 1.8867 -5.1785 -12.6123 -48.2106 -0.3608 -3.8587 10.6795 -4.6090 0.9067 4.4256 -0.0987 0.1080 -10.4993 2.5091 0.3019 -14.0300 -3.1660 -5.3876 -14.8853 6.8965 -12.9012 36.6379 0.8877 -5.8858 16.3621 0.0000 0.0000 0.0000 -85.6583 19.3074 4.5467 19.1451 -29.5985 -5.1023 -0.0000 -0.0000 12.3326 29.9553 28.9130 15.5697 -7.1250 0.0000 -0.0000 -0.9568 62.4940 -0.4068 0.0000 0.0000 0.0000 21.6786 21.0640 -26.0499 -100.7519 59.5586 -69.2976 0.0000 -0.0000 -3.6754 -66.0896 -20.2970 38.0399 7.1250 -0.0000 -0.0000 -55.3599 -63.5413 29.1383
6.7927 15.9222 4.9263 -177.4250 -45.9977 -173.2330 0.0000 0.0000 0.0000 -27.9911 -39.3339 13.6383 0.0481 -1.4157 -3.8933 -1.2239 22.8965 -22.2085 12.2233 -18.4835 -66.6948 0.0000 0.0000 0.0000 24.5155 11.1060 9.1587 -0.0028 -0.3389 0.9311 -5.0957 -12.6396 -47.9078 -0.3896 -4.0082 11.0996 -4.4265 1.0042 4.4294 -0.0942 0.2621 -10.5160 2.3865 0.3567 -14.0598 -3.2721 -5.2013 -14.7048 6.6657 -12.5759 36.9963 0.8738 -5.8082 16.4601 0.0000 0.0000 0.0000 -85.4669 19.4532 4.4383 18.7094 -29.0560 -4.8889 -0.0000 -0.0000 12.5152 29.6720 29.0430 15.4609 -7.1250 0.0000 -0.0000 -1.3642 62.5570 -0.5820 0.0000 0.0000 0.0000 23.5495 23.1589 -29.1889 -104.1778 59.2267 -72.2465 0.0000 -0.0000 -21.6223 -72.8025 -25.0942 53.8789 7.1250 -0.0000 -0.0000 -89.1256 -67.9563 65.1744
6.9025 15.9171 4.8760 -176.9750 -45.8427 -173.7450 0.0000 0.0000 0.0000 -27.7071 -40.4163 14.7160 0.0512 -1.4605 -4.0169 -1.3818 24.1736 -23.4098 12.3069 -18.5174 -66.9584 0.0000 0.0000 0.0000 25.8815 12.2295 10.4483 -0.0002 0.0848 -0.2330 -5.2959 -13.5306 -49.1130 -0.4233 -4.1756 11.5712 -4.2393 1.0209 4.3786 0.1901 0.3460 -10.5025 2.5824 0.3972 -14.0154 -3.2098 -5.3430 -14.5681 5.9600 -12.4471 36.8558 0.5981 -5.8341 16.2590 0.0000 -0.0000 0.0000 -85.8932 19.4405 3.4226 18.3001 -28.5397 -4.6917 -0.0000 -0.0000 13.2150 29.3168 28.6762 15.0812 -7.1250 0.0000 -0.0000 -1.6392 62.0717 -0.6806 0.0000 -0.0000 0.0000 25.0264 23.3299 -26.5017 -107.1520 58.8587 -74.7971 0.0000 -0.0000 -21.5502 -71.0143 -23.4583 49.1643 7.1250 -0.0000 -0.0000 -78.1358 -67.2837 53.0787
7.0120 15.9112 4.8276 -177.2150 -45.5314 -173.7550 0.0000 0.0000 0.0000 -27.6279 -40.5475 15.0402 0.0507 -1.4526 -3.9951 -1.5033 24.8671 -23.7387 12.3812 -18.5472 -67.1920 0.0000 0.0000 0.0000 27.2275 14.3748 12.5078 -0.0087 0.6019 -1.6539 -5.8642 -14.5055 -51.6535 -0.5857 -4.9001 13.6240 -4.2213 1.1440 4.3529 0.1455 0.5004 -10.5702 2.4985 0.4640 -14.0929 -3.2762 -5.1954 -14.3196 5.9267 -12.1968 36.8763 0.6531 -5.7587 16.1915 -0.0000 -0.0000 0.0000 -85.8252 19.4910 2.9422 17.7695 -27.8610 -4.4410 -0.0000 -0.0000 13.5968 29.4664 29.1823 15.4022 -7.1250 0.0000 -0.0000 -1.6810 62.6502 -0.7209 -0.0000 -0.0000 0.0000 25.7566 20.7575 -18.2015 -110.3532 58.3754 -77.5302 0.0000 -0.0000 -6.5855 -68.1035 -21.2135 41.9960 7.1250 -0.0000 -0.0000 -62.9142 -65.0820 36.7111
7.1174 15.9158 4.7862 -176.5540 -45.1108 -174.3460 0.0000 0.0000 0.0000 -26.9659 -41.1402 15.5945 0.0466 -1.3927 -3.8299 -1.7408 26.2072 -24.4988 12.5229 -18.6030 -67.6368 0.0000 0.0000 0.0000 29.3082 16.8737 14.4380 -0.0215 0.9474 -2.6041 -6.6078 -14.6493 -54.2675 -0.8740 -5.9606 16.6700 -3.2801 1.3182 4.1615 0.1465 0.8601 -10.5116 1.9153 0.5309 -13.8916 -3.1672 -5.1670 -14.5704 5.7958 -12.1167 36.9472 0.5842 -5.7099 16.2614 -0.0000 -0.0000 0.0000 -85.6343 19.8564 3.2279 17.9772 -28.1280 -4.5385 -0.0000 -0.0000 13.1968 28.8223 28.9543 14.9165 -7.1250 0.0000 -0.0000 -2.3675 62.2368 -0.9924 -0.0000 -0.0000 0.0000 24.8863 17.4293 -8.3007 -114.0819 57.6911 -80.6939 0.0000 0.0000 10.2161 -63.6837 -14.4593 26.7871 7.1250 -0.0000 -0.0000 -41.1803 -54.9089 11.4572
7.2375 15.9255 4.7493 -176.4920 -44.6998 -174.4440 0.0000 0.0000 0.0000 -26.9689 -42.4717 16.5561 0.0418 -1.3201 -3.6300 -1.1264 25.4003 -28.3106 11.9931 -18.3877 -65.9670 0.0000 0.0000 0.0000 30.7925 19.0923 16.0713 -0.0345 1.1990 -3.2966 -7.3469 -14.0601 -56.4348 -1.2438 -7.0715 19.9273 -2.9703 1.4068 3.9686 0.2335 1.0409 -10.4158 1.8105 0.5887 -13.6554 -2.9946 -4.9868 -15.2957 5.5705 -11.7052 36.9810 0.5134 -5.4911 16.3904 0.0000 0.0000 0.0000 -85.9361 21.2522 4.1167 19.4466 -29.9699 -5.2521 -0.0000 -0.0000 11.6933 29.1390 30.2763 15.6989 -7.1250 0.0000 -0.0000 -2.6196 63.7197 -1.1894 0.0000 0.0000 0.0000 22.5632 14.8539 1.4188 -117.9082 56.8421 -83.9130 0.0000 0.0000 25.8856 -59.0638 -0.4167 0.6953 7.1250 -0.0000 -0.0000 -25.0972 -30.1133 -10.0057
